<svg width="256" height="28" viewBox="0 0 256 28" fill="none" xmlns="http://www.w3.org/2000/svg">
<g filter="url(#filter0_b)">
<path d="M22.2641 20.992H7.04813L3.88013 28H0.424125L12.9521 0.88H16.3601L28.8881 28H25.4321L22.2641 20.992ZM21.0161 18.208L14.6801 4.144L8.29613 18.208H21.0161ZM34.0556 0.88H37.5116V25.12H52.6316V28H34.0556V0.88ZM77.7836 25.12V28H58.0556V0.88H77.2076V3.76H61.5116V12.832H75.5276V15.664H61.5116V25.12H77.7836ZM101.62 28L93.0761 16.576L84.5321 28H80.6441L91.2041 14.032L81.2681 0.88H85.1561L93.1241 11.536L101.092 0.88H104.932L95.0441 14.032L105.556 28H101.62ZM126.749 20.992H111.533L108.365 28H104.909L117.437 0.88H120.845L133.373 28H129.917L126.749 20.992ZM125.501 18.208L119.165 4.144L112.781 18.208H125.501ZM161.916 0.88V28H159.036L141.996 6.832V28H138.54V0.88H141.42L158.46 22.048V0.88H161.916ZM172.009 0.88H183.385C186.393 0.88 189.017 1.456 191.257 2.608C193.497 3.728 195.209 5.312 196.393 7.36C197.609 9.376 198.217 11.728 198.217 14.416C198.217 17.104 197.609 19.472 196.393 21.52C195.209 23.568 193.497 25.168 191.257 26.32C189.017 27.44 186.393 28 183.385 28H172.009V0.88ZM183.241 25.12C186.857 25.12 189.673 24.16 191.689 22.24C193.737 20.288 194.761 17.68 194.761 14.416C194.761 11.184 193.737 8.608 191.689 6.688C189.673 4.736 186.857 3.76 183.241 3.76H175.465V25.12H183.241ZM225.299 25.12V28H205.571V0.88H224.723V3.76H209.027V12.832H223.043V15.664H209.027V25.12H225.299ZM251.335 28L245.191 19.456C244.359 19.52 243.735 19.552 243.319 19.552H236.215V28H232.759V0.88H243.319C246.839 0.88 249.607 1.712 251.623 3.376C253.639 5.008 254.647 7.296 254.647 10.24C254.647 12.32 254.103 14.096 253.015 15.568C251.959 17.04 250.439 18.112 248.455 18.784L255.079 28H251.335ZM243.127 16.72C245.719 16.72 247.703 16.16 249.079 15.04C250.487 13.92 251.191 12.32 251.191 10.24C251.191 8.16 250.503 6.56 249.127 5.44C247.751 4.32 245.751 3.76 243.127 3.76H236.215V16.72H243.127Z" fill="white"/>
</g>
<defs>
<filter id="filter0_b" x="-3.57587" y="-3.12" width="262.655" height="35.12" filterUnits="userSpaceOnUse" color-interpolation-filters="sRGB">
<feFlood flood-opacity="0" result="BackgroundImageFix"/>
<feGaussianBlur in="BackgroundImage" stdDeviation="2"/>
<feComposite in2="SourceAlpha" operator="in" result="effect1_backgroundBlur"/>
<feBlend mode="normal" in="SourceGraphic" in2="effect1_backgroundBlur" result="shape"/>
</filter>
</defs>
</svg>
