<svg width="278" height="88" viewBox="0 0 278 88" fill="none" xmlns="http://www.w3.org/2000/svg">
<g filter="url(#filter0_b)">
<path d="M32.7641 20.992H17.5481L14.3801 28H10.9241L23.4521 0.88H26.8601L39.3881 28H35.9321L32.7641 20.992ZM31.5161 18.208L25.1801 4.144L18.7961 18.208H31.5161ZM44.5556 0.88H48.0116V25.12H63.1316V28H44.5556V0.88ZM88.2836 25.12V28H68.5556V0.88H87.7076V3.76H72.0116V12.832H86.0276V15.664H72.0116V25.12H88.2836ZM112.12 28L103.576 16.576L95.0321 28H91.1441L101.704 14.032L91.7681 0.88H95.6561L103.624 11.536L111.592 0.88H115.432L105.544 14.032L116.056 28H112.12ZM137.249 20.992H122.033L118.865 28H115.409L127.937 0.88H131.345L143.873 28H140.417L137.249 20.992ZM136.001 18.208L129.665 4.144L123.281 18.208H136.001ZM172.416 0.88V28H169.536L152.496 6.832V28H149.04V0.88H151.92L168.96 22.048V0.88H172.416ZM182.509 0.88H193.885C196.893 0.88 199.517 1.456 201.757 2.608C203.997 3.728 205.709 5.312 206.893 7.36C208.109 9.376 208.717 11.728 208.717 14.416C208.717 17.104 208.109 19.472 206.893 21.52C205.709 23.568 203.997 25.168 201.757 26.32C199.517 27.44 196.893 28 193.885 28H182.509V0.88ZM193.741 25.12C197.357 25.12 200.173 24.16 202.189 22.24C204.237 20.288 205.261 17.68 205.261 14.416C205.261 11.184 204.237 8.608 202.189 6.688C200.173 4.736 197.357 3.76 193.741 3.76H185.965V25.12H193.741ZM235.799 25.12V28H216.071V0.88H235.223V3.76H219.527V12.832H233.543V15.664H219.527V25.12H235.799ZM261.835 28L255.691 19.456C254.859 19.52 254.235 19.552 253.819 19.552H246.715V28H243.259V0.88H253.819C257.339 0.88 260.107 1.712 262.123 3.376C264.139 5.008 265.147 7.296 265.147 10.24C265.147 12.32 264.603 14.096 263.515 15.568C262.459 17.04 260.939 18.112 258.955 18.784L265.579 28H261.835ZM253.627 16.72C256.219 16.72 258.203 16.16 259.579 15.04C260.987 13.92 261.691 12.32 261.691 10.24C261.691 8.16 261.003 6.56 259.627 5.44C258.251 4.32 256.251 3.76 253.627 3.76H246.715V16.72H253.627ZM15.348 87.288C12.628 87.288 10.148 86.696 7.908 85.512C5.7 84.296 3.956 82.632 2.676 80.52C1.428 78.408 0.804 76.04 0.804 73.416C0.804 70.824 1.428 68.472 2.676 66.36C3.956 64.248 5.7 62.584 7.908 61.368C10.148 60.152 12.628 59.544 15.348 59.544C18.1 59.544 20.58 60.152 22.788 61.368C24.996 62.552 26.724 64.216 27.972 66.36C29.252 68.472 29.892 70.824 29.892 73.416C29.892 76.04 29.252 78.408 27.972 80.52C26.724 82.632 24.996 84.296 22.788 85.512C20.58 86.696 18.1 87.288 15.348 87.288ZM15.348 84.312C17.428 84.312 19.316 83.848 21.012 82.92C22.708 81.96 24.036 80.664 24.996 79.032C25.956 77.368 26.436 75.512 26.436 73.464C26.436 71.384 25.956 69.528 24.996 67.896C24.036 66.232 22.708 64.936 21.012 64.008C19.316 63.048 17.428 62.568 15.348 62.568C13.268 62.568 11.38 63.048 9.684 64.008C7.988 64.936 6.66 66.232 5.7 67.896C4.74 69.528 4.26 71.384 4.26 73.464C4.26 75.512 4.74 77.368 5.7 79.032C6.66 80.664 7.988 81.96 9.684 82.92C11.38 83.848 13.268 84.312 15.348 84.312ZM56.0591 73.416H59.3711V83.832C58.1231 84.952 56.6031 85.816 54.8111 86.424C53.0511 87 51.1951 87.288 49.2431 87.288C46.4591 87.288 43.9471 86.696 41.7071 85.512C39.4671 84.296 37.7071 82.632 36.4271 80.52C35.1471 78.408 34.5071 76.04 34.5071 73.416C34.5071 70.824 35.1311 68.472 36.3791 66.36C37.6591 64.248 39.4031 62.584 41.6111 61.368C43.8511 60.152 46.3471 59.544 49.0991 59.544C53.6431 59.544 57.1311 60.888 59.5631 63.576L57.3551 65.832C55.1791 63.656 52.4431 62.568 49.1471 62.568C47.0351 62.568 45.1311 63.048 43.4351 64.008C41.7391 64.936 40.3951 66.232 39.4031 67.896C38.4431 69.528 37.9631 71.368 37.9631 73.416C37.9631 75.464 38.4431 77.32 39.4031 78.984C40.3951 80.616 41.7391 81.912 43.4351 82.872C45.1631 83.8 47.1151 84.264 49.2911 84.264C51.9151 84.264 54.1711 83.624 56.0591 82.344V73.416ZM79.7876 87.288C76.1716 87.288 73.3396 86.264 71.2916 84.216C69.2756 82.168 68.2676 79.256 68.2676 75.48V59.88H71.7236V75.384C71.7236 78.328 72.4116 80.552 73.7876 82.056C75.1636 83.56 77.1636 84.312 79.7876 84.312C82.4116 84.312 84.4116 83.56 85.7876 82.056C87.1956 80.552 87.8996 78.328 87.8996 75.384V59.88H91.2596V75.48C91.2596 79.256 90.2516 82.168 88.2356 84.216C86.2196 86.264 83.4036 87.288 79.7876 87.288ZM120.768 84.12V87H101.04V59.88H120.192V62.76H104.496V71.832H118.512V74.664H104.496V84.12H120.768ZM131.108 87.288C129.444 87.288 127.908 86.952 126.5 86.28C125.124 85.576 124.036 84.6 123.236 83.352L125.396 81.192C126.868 83.272 128.756 84.312 131.06 84.312C132.724 84.312 133.956 83.848 134.756 82.92C135.556 81.96 135.956 80.504 135.956 78.552V62.76H125.972V59.88H139.364V78.312C139.364 84.296 136.612 87.288 131.108 87.288ZM149.134 59.88H152.59V87H149.134V59.88ZM174.489 87.288C171.769 87.288 169.289 86.696 167.049 85.512C164.841 84.296 163.097 82.632 161.817 80.52C160.569 78.408 159.945 76.04 159.945 73.416C159.945 70.824 160.569 68.472 161.817 66.36C163.097 64.248 164.841 62.584 167.049 61.368C169.289 60.152 171.769 59.544 174.489 59.544C177.241 59.544 179.721 60.152 181.929 61.368C184.137 62.552 185.865 64.216 187.113 66.36C188.393 68.472 189.033 70.824 189.033 73.416C189.033 76.04 188.393 78.408 187.113 80.52C185.865 82.632 184.137 84.296 181.929 85.512C179.721 86.696 177.241 87.288 174.489 87.288ZM174.489 84.312C176.569 84.312 178.457 83.848 180.153 82.92C181.849 81.96 183.177 80.664 184.137 79.032C185.097 77.368 185.577 75.512 185.577 73.464C185.577 71.384 185.097 69.528 184.137 67.896C183.177 66.232 181.849 64.936 180.153 64.008C178.457 63.048 176.569 62.568 174.489 62.568C172.409 62.568 170.521 63.048 168.825 64.008C167.129 64.936 165.801 66.232 164.841 67.896C163.881 69.528 163.401 71.384 163.401 73.464C163.401 75.512 163.881 77.368 164.841 79.032C165.801 80.664 167.129 81.96 168.825 82.92C170.521 83.848 172.409 84.312 174.489 84.312ZM199.84 62.76V72.84H213.856V75.768H199.84V87H196.384V59.88H215.536V62.76H199.84ZM233.692 87.288C230.972 87.288 228.492 86.696 226.252 85.512C224.044 84.296 222.3 82.632 221.02 80.52C219.772 78.408 219.148 76.04 219.148 73.416C219.148 70.824 219.772 68.472 221.02 66.36C222.3 64.248 224.044 62.584 226.252 61.368C228.492 60.152 230.972 59.544 233.692 59.544C236.444 59.544 238.924 60.152 241.132 61.368C243.34 62.552 245.068 64.216 246.316 66.36C247.596 68.472 248.236 70.824 248.236 73.416C248.236 76.04 247.596 78.408 246.316 80.52C245.068 82.632 243.34 84.296 241.132 85.512C238.924 86.696 236.444 87.288 233.692 87.288ZM233.692 84.312C235.772 84.312 237.66 83.848 239.356 82.92C241.052 81.96 242.38 80.664 243.34 79.032C244.3 77.368 244.78 75.512 244.78 73.464C244.78 71.384 244.3 69.528 243.34 67.896C242.38 66.232 241.052 64.936 239.356 64.008C237.66 63.048 235.772 62.568 233.692 62.568C231.612 62.568 229.724 63.048 228.028 64.008C226.332 64.936 225.004 66.232 224.044 67.896C223.084 69.528 222.604 71.384 222.604 73.464C222.604 75.512 223.084 77.368 224.044 79.032C225.004 80.664 226.332 81.96 228.028 82.92C229.724 83.848 231.612 84.312 233.692 84.312ZM274.163 87L268.019 78.456C267.187 78.52 266.563 78.552 266.147 78.552H259.043V87H255.587V59.88H266.147C269.667 59.88 272.435 60.712 274.451 62.376C276.467 64.008 277.475 66.296 277.475 69.24C277.475 71.32 276.931 73.096 275.843 74.568C274.787 76.04 273.267 77.112 271.283 77.784L277.907 87H274.163ZM265.955 75.72C268.547 75.72 270.531 75.16 271.907 74.04C273.315 72.92 274.019 71.32 274.019 69.24C274.019 67.16 273.331 65.56 271.955 64.44C270.579 63.32 268.579 62.76 265.955 62.76H259.043V75.72H265.955Z" fill="#B4DDFF"/>
</g>
<defs>
<filter id="filter0_b" x="-3.196" y="-3.12" width="285.103" height="94.408" filterUnits="userSpaceOnUse" color-interpolation-filters="sRGB">
<feFlood flood-opacity="0" result="BackgroundImageFix"/>
<feGaussianBlur in="BackgroundImage" stdDeviation="2"/>
<feComposite in2="SourceAlpha" operator="in" result="effect1_backgroundBlur"/>
<feBlend mode="normal" in="SourceGraphic" in2="effect1_backgroundBlur" result="shape"/>
</filter>
</defs>
</svg>
